<svg xmlns="http://www.w3.org/2000/svg" width="30" height="26" viewBox="0 0 30 26">
    <path fill="#000" fill-rule="nonzero" d="M12 3a3 3 0 1 1 6 0 3 3 0 0 1-6 0zm-.5 4.97V12h7V7.97a.97.97 0 0 0-.97-.97h-5.06a.97.97 0 0 0-.97.97zM26.5 4a3 3 0 1 0 0 6 3 3 0 0 0 0-6zm-23 0a3 3 0 1 0 0 6 3 3 0 0 0 0-6zm3 11h8v11h1V15h8v-2h-17v2zM0 12.125v7.53c0 .609.411 1.14 1 1.295V21h3v5h2v-6a1 1 0 0 0-1-1v-6.875C5 11.504 4.496 11 3.875 11h-2.75C.504 11 0 11.504 0 12.125zm25 0V19a1 1 0 0 0-1 1v6h2v-5h3v-.05a1.34 1.34 0 0 0 1-1.295v-7.53c0-.621-.504-1.125-1.125-1.125h-2.75c-.621 0-1.125.504-1.125 1.125z"/>
</svg>
