<svg xmlns="http://www.w3.org/2000/svg" width="26" height="26" viewBox="0 0 26 26">
    <g fill="#000" fill-rule="nonzero">
        <path d="M23.878 1.061h-.629A1.592 1.592 0 0 0 21.755 0h-7.428a.53.53 0 0 0-.376.155l-1.216 1.217L11.518.155A.53.53 0 0 0 11.143 0H3.714A1.592 1.592 0 0 0 2.22 1.061h-.628C.712 1.061 0 1.774 0 2.653V16.45c0 .88.713 1.592 1.592 1.592h3.714V16.98H1.592a.53.53 0 0 1-.53-.531V2.653a.53.53 0 0 1 .53-.53h.53v12.204c0 .879.713 1.591 1.592 1.591h1.062v-1.06H3.714a.53.53 0 0 1-.53-.531V1.592a.53.53 0 0 1 .53-.53h7.21l1.28 1.28v1.903h1.061V2.342l1.281-1.28h7.21a.53.53 0 0 1 .53.53v12.735a.53.53 0 0 1-.53.53h-1.062v1.061h1.061c.88 0 1.592-.712 1.592-1.591V2.122h.53a.53.53 0 0 1 .531.531V16.45a.53.53 0 0 1-.53.53h-3.715v1.062h3.715c.879 0 1.591-.713 1.591-1.592V2.653c0-.88-.712-1.592-1.591-1.592z"/>
        <path d="M4.245 3.714h6.898v1.061H4.245zM14.327 3.714h6.898v1.061h-6.898zM4.245 6.367h2.122v1.061H4.245zM19.102 6.367h2.122v1.061h-2.122zM12.735 7.96v1.06a3.719 3.719 0 0 1 3.714 3.715h1.061a4.781 4.781 0 0 0-4.775-4.776z"/>
        <path d="M20.738 18.727a.53.53 0 0 0-.75 0l-.256.255-1.39-1.39a7.453 7.453 0 1 0-.75.75l1.39 1.39-.255.256a.53.53 0 0 0 0 .75l4.314 4.315a1.423 1.423 0 1 0 2.012-2.012l-4.315-4.314zm-14.37-5.992a6.367 6.367 0 1 1 6.367 6.367 6.374 6.374 0 0 1-6.368-6.367zm17.934 11.567a.362.362 0 0 1-.51 0l-3.94-3.94.51-.51 3.94 3.94c.14.14.14.369 0 .51z"/>
    </g>
</svg>
