<svg xmlns="http://www.w3.org/2000/svg" width="22" height="28" viewBox="0 0 22 28">
    <g fill="#000" fill-rule="nonzero">
        <path d="M10.64 9.38a2.134 2.134 0 0 1-1.839.12l-1.463-.587L18.32 3.122v-1.12L6.879 8.054c-.433.245-.7.704-.7 1.203V25.25c0 .874.53 1.66 1.34 1.986l.803.322a3.195 3.195 0 0 0 2.769-.185l10.802-5.689V3.435L10.64 9.38z"/>
        <path d="M5.822 8.896c0-.498.267-.956.7-1.202l9.299-4.916V1.645L4.569 7.59a2.134 2.134 0 0 1-1.839.12l-1.463-.586L12.25 1.332V.212L.808 6.264a1.38 1.38 0 0 0-.7 1.203v15.992c0 .876.53 1.662 1.34 1.987l.802.322a3.19 3.19 0 0 0 2.769-.185l.84-.442c-.01-.084-.038-.164-.038-.25V8.897z"/>
    </g>
</svg>
