<svg height="512pt" viewBox="-1 0 512 512" width="512pt" xmlns="http://www.w3.org/2000/svg"><path d="m357.351562 331-60 60h-84.277343l-60-60h-153.074219l81.214844 81.214844v99.785156h350v-99.9375l78.359375-81.0625zm-284.925781 30h68.222657l30 30h-68.222657zm38.789063 121v-61h177.351562v61zm207.351562 0v-61h82.648438v61zm91.285156-91h-70.070312l30-30h69.070312zm0 0"/><path d="m255.214844 330c90.980468 0 165-74.019531 165-165s-74.019532-165-165-165c-90.984375 0-165 74.019531-165 165s74.015625 165 165 165zm0-187.5c12.40625 0 22.5 10.09375 22.5 22.5s-10.09375 22.5-22.5 22.5c-12.410156 0-22.5-10.09375-22.5-22.5s10.09375-22.5 22.5-22.5zm15 156.660156v-83.855468c7.964844-2.378907 15.140625-6.605469 21.035156-12.179688l72.601562 41.917969c-21.800781 29.515625-55.324218 49.863281-93.636718 54.117187zm120-134.160156c0 19.222656-4.050782 37.515625-11.324219 54.085938l-72.613281-41.925782c.929687-3.90625 1.4375-7.972656 1.4375-12.160156 0-23.738281-15.839844-43.835938-37.5-50.304688v-83.855468c67.402344 7.484375 120 64.792968 120 134.160156zm-150-134.160156v83.855468c-7.96875 2.378907-15.144532 6.605469-21.039063 12.179688l-72.601562-41.917969c21.804687-29.515625 55.328125-49.863281 93.640625-54.117187zm-108.679688 80.074218 72.617188 41.925782c-.929688 3.90625-1.4375 7.972656-1.4375 12.160156 0 23.738281 15.839844 43.835938 37.5 50.304688v83.855468c-67.40625-7.484375-120-64.792968-120-134.160156 0-19.222656 4.046875-37.515625 11.320312-54.085938zm0 0"/></svg>