<svg xmlns="http://www.w3.org/2000/svg" width="24" height="24" viewBox="0 0 24 24">
    <g fill="#000" fill-rule="nonzero">
        <path d="M22.4 2.4h-9.6V.8a.8.8 0 1 0-1.6 0v1.6H1.6C.718 2.4 0 3.118 0 4v12.8c0 .882.718 1.6 1.6 1.6h8.661l-3.668 4.28A.798.798 0 0 0 7.2 24c.225 0 .45-.095.607-.28L12 18.828l4.193 4.892a.795.795 0 0 0 1.127.087.798.798 0 0 0 .087-1.127l-3.668-4.28H22.4c.882 0 1.6-.718 1.6-1.6V4c0-.882-.718-1.6-1.6-1.6zM1.6 16.8V4h20.8l.002 12.8H1.6z"/>
        <path d="M18.4 6.4H5.6a.8.8 0 1 0 0 1.6h12.8a.8.8 0 1 0 0-1.6zM16.8 11.2a.8.8 0 1 0 0-1.6H7.2a.8.8 0 1 0 0 1.6h9.6zM18.4 12.8H5.6a.8.8 0 1 0 0 1.6h12.8a.8.8 0 1 0 0-1.6z"/>
    </g>
</svg>
